<svg width="48" height="48" viewBox="0 0 48 48" fill="none" xmlns="http://www.w3.org/2000/svg">
<rect width="48" height="48" fill="#022009"/>
<path d="M46 23L39.9 20.74C39.38 18.44 38.08 17.12 38.08 17.12C37.3017 16.3405 36.3773 15.7221 35.3598 15.3002C34.3423 14.8783 33.2515 14.6611 32.15 14.6611C31.0485 14.6611 29.9577 14.8783 28.9402 15.3002C27.9227 15.7221 26.9983 16.3405 26.22 17.12L23.26 20.08L10 6C8 14 10 22 14.9 28.44L4 39C4 39 21.78 43 32.14 34.9C37.66 30.58 38.9 28.06 39.68 25.4L46 23ZM35.42 23.44C34.64 24.22 33.36 24.22 32.58 23.44C32.3946 23.255 32.2475 23.0352 32.1471 22.7932C32.0468 22.5513 31.9951 22.2919 31.9951 22.03C31.9951 21.7681 32.0468 21.5087 32.1471 21.2668C32.2475 21.0248 32.3946 20.805 32.58 20.62C33.36 19.84 34.64 19.84 35.42 20.62C36.2 21.4 36.2 22.66 35.42 23.44Z" fill="#90A7DF" fill-opacity="0.5"/>
</svg>
