<svg width="48" height="48" viewBox="0 0 48 48" fill="none" xmlns="http://www.w3.org/2000/svg">
<path fill-rule="evenodd" clip-rule="evenodd" d="M8.22559 13.8812C9.30206 12.6772 13.9738 8.69167 18.6768 12.8432L21.8125 15.9574C23.3802 17.5143 26.2346 19.2548 32.2637 15.9574L41.6699 11.8051C44.361 10.9458 46.9628 12.5314 37.4893 27.3744L42.7148 26.3363C44.5093 25.9918 47.2686 26.991 41.6699 31.5267C35.7483 35.993 20.6527 42.459 10.3164 32.5648C4.95378 27.4303 3.01418 20.2348 3 20.182L8.22559 13.8812ZM13.46 18.0219C12.3046 18.0219 11.3682 18.9516 11.3682 20.099C11.3682 21.2464 12.3046 22.1771 13.46 22.1771C14.6152 22.177 15.5518 21.2464 15.5518 20.099C15.5517 18.9517 14.6152 18.022 13.46 18.0219Z" fill="#496374"/>
</svg>
