<svg width="376" height="258" viewBox="0 0 376 258" fill="none" xmlns="http://www.w3.org/2000/svg">
<path d="M188 4C239.276 4 285.509 17.1636 318.797 38.2344C352.135 59.3368 372 87.9914 372 119C372 151.095 350.709 180.676 315.245 201.952L311.809 204.014L313.877 207.446C323.629 223.633 335.592 238.075 349.33 250.221C322.279 243.798 298.058 233.624 278.151 220.822L276.535 219.783L274.714 220.395C248.891 229.067 219.377 234 188 234C155.883 234 125.719 228.834 99.4688 219.778L97.6191 219.141L95.9795 220.209C75.8976 233.298 51.3392 243.695 23.8594 250.22C37.9575 237.754 50.1849 222.868 60.0732 206.163L62.0713 202.787L58.7344 200.724C24.4783 179.539 4 150.481 4 119C4 87.9914 23.865 59.3368 57.2031 38.2344C90.4914 17.1636 136.724 4 188 4Z" fill="#F0F9F1" stroke="#022009" stroke-width="8"/>
</svg>
