<svg width="48" height="48" viewBox="0 0 48 48" fill="none" xmlns="http://www.w3.org/2000/svg">
<rect width="47.9603" height="47.9603" fill="#022009"/>
<path d="M43.4133 3.4668L40.5381 8.21955L39.8783 8.00598C37.3355 7.18194 33.1784 7.33622 30.7359 8.01628L30.0893 8.19651L27.4028 3.64936C24.2526 10.1366 24.3805 14.6615 26.0174 17.5667C27.77 20.6773 31.3921 22.165 35.3019 22.1167C39.8678 22.0599 43.6357 20.2746 45.3281 17.0402C46.9129 14.0116 46.7973 9.50371 43.4132 3.46689L43.4133 3.4668ZM30.3436 12.8889C32.0719 12.8983 33.0938 14.3257 33.2907 16.3215C29.8146 17.9991 28.2359 16.6398 27.5605 13.8349C28.6267 13.1733 29.558 12.8847 30.3435 12.8888L30.3436 12.8889ZM40.5783 12.8889C41.3637 12.8847 42.2951 13.1733 43.3613 13.835C42.6859 16.6398 41.1071 17.9991 37.631 16.3215C37.828 14.3257 38.85 12.8982 40.5782 12.8889H40.5783ZM13.0804 17.6625C12.9656 17.6616 12.8513 17.6622 12.7376 17.6642C9.91103 17.7144 7.47863 18.6562 5.64256 20.1534C1.57305 23.4722 0.277935 29.5911 4.4413 35.721C6.3422 38.9054 8.60336 40.8018 11.073 41.7336C14.1502 42.8947 17.3168 42.5601 20.4347 42.119C23.5525 41.6779 26.6034 41.1232 29.5111 41.3302C32.4187 41.5374 35.3273 42.2838 37.989 45.1863C39.8038 47.1651 42.381 45.0339 40.2203 42.9235C36.9395 39.7193 33.4265 38.4816 29.9746 38.2361C26.5228 37.9907 23.2115 38.6762 20.2133 39.1006C17.2151 39.5249 14.5675 39.7143 12.2926 38.8561C10.9446 38.3474 9.64087 37.4695 8.40046 35.9389H41.3492C42.63 31.0405 42.7418 25.9752 41.5246 22.6307C39.6732 23.426 37.5518 23.8391 35.3235 23.8669H35.3233C32.5272 23.9015 29.7538 23.2182 27.5572 21.729C27.1049 22.0223 26.6585 22.3248 26.2185 22.6362L25.6813 23.0162L25.1671 22.6058C20.7991 19.1212 16.6403 17.6898 13.0805 17.6624L13.0804 17.6625Z" fill="#DFC290" fill-opacity="0.5"/>
</svg>
