<svg width="48" height="48" viewBox="0 0 48 48" fill="none" xmlns="http://www.w3.org/2000/svg">
<rect width="47.9603" height="47.9603" transform="matrix(-1 0 0 1 47.9604 0)" fill="#022009"/>
<path d="M13.9887 27.9767C12.0654 27.9697 10.185 27.4076 8.57322 26.3581L7.9937 25.9784C7.67067 25.7617 7.3695 25.5141 7.09444 25.239L6.67479 24.8393C6.32324 24.4805 6.00238 24.0928 5.71559 23.6803L5.59568 23.5204C5.2723 23.0429 4.99781 22.5341 4.77636 22.0017C4.707 21.8523 4.64693 21.6988 4.59651 21.5421C4.42878 21.1342 4.2951 20.7131 4.19684 20.2831L4.07694 19.7835C4.00116 19.1872 3.97442 18.5857 3.99701 17.985V3.99658L9.99205 9.99162H17.9854L23.9805 3.99658V17.985C23.9805 20.635 22.9278 23.1764 21.054 25.0502C19.1801 26.924 16.6387 27.9767 13.9887 27.9767ZM9.99205 13.9883C9.59681 13.9883 9.21045 14.1055 8.88182 14.3251C8.5532 14.5447 8.29706 14.8568 8.14581 15.2219C7.99456 15.5871 7.95499 15.9889 8.0321 16.3765C8.1092 16.7642 8.29953 17.1202 8.579 17.3997C8.85847 17.6792 9.21454 17.8695 9.60219 17.9466C9.98983 18.0237 10.3916 17.9841 10.7568 17.8329C11.1219 17.6816 11.434 17.4255 11.6536 17.0969C11.8732 16.7683 11.9904 16.3819 11.9904 15.9867C11.9904 15.4567 11.7799 14.9484 11.4051 14.5736C11.0303 14.1989 10.522 13.9883 9.99205 13.9883ZM17.9854 13.9883C17.5902 13.9883 17.2038 14.1055 16.8752 14.3251C16.5466 14.5447 16.2904 14.8568 16.1392 15.2219C15.9879 15.5871 15.9484 15.9889 16.0255 16.3765C16.1026 16.7642 16.2929 17.1202 16.5724 17.3997C16.8519 17.6792 17.2079 17.8695 17.5956 17.9466C17.9832 18.0237 18.385 17.9841 18.7502 17.8329C19.1153 17.6816 19.4274 17.4255 19.647 17.0969C19.8666 16.7683 19.9838 16.3819 19.9838 15.9867C19.9838 15.4567 19.7732 14.9484 19.3985 14.5736C19.0237 14.1989 18.5154 13.9883 17.9854 13.9883Z" fill="#DFC290" fill-opacity="0.5"/>
<path d="M25.9788 43.9635V33.9718H31.9738V43.9635H37.9688V23.7802C38.9853 23.6326 39.9565 23.2622 40.8132 22.6957C41.6699 22.1292 42.3909 21.3804 42.9247 20.5029C43.5691 19.44 43.9271 18.2283 43.9639 16.9858C43.9276 15.9916 43.6884 15.0154 43.2609 14.117C42.8333 13.2187 42.2266 12.4174 41.4779 11.7622C40.7291 11.1071 39.8543 10.6121 38.9072 10.3076C37.9601 10.0031 36.9607 9.89556 35.9705 9.99162C35.4373 10.0237 34.9033 9.94225 34.4039 9.75274C33.9045 9.56322 33.4509 9.26992 33.0732 8.8922C32.6955 8.51449 32.4022 8.06094 32.2127 7.56151C32.0232 7.06209 31.9417 6.52814 31.9738 5.99493C31.9738 5.46493 31.7633 4.95665 31.3885 4.58188C31.0137 4.20712 30.5054 3.99658 29.9754 3.99658C29.4455 3.99658 28.9372 4.20712 28.5624 4.58188C28.1876 4.95665 27.9771 5.46493 27.9771 5.99493C27.9467 7.05288 28.1327 8.10589 28.5237 9.08942C28.9146 10.073 29.5023 10.9663 30.2507 11.7147C30.9991 12.4631 31.8925 13.0508 32.876 13.4417C33.8595 13.8327 34.9125 14.0187 35.9705 13.9883C39.5875 13.9883 39.9672 16.3064 39.9672 17.0058C39.9672 17.7052 39.6075 19.9833 35.9705 19.9833H25.7989C25.5054 21.7049 24.8393 23.3415 23.8473 24.7788C22.8553 26.2161 21.5613 27.4193 20.0558 28.3044C18.5502 29.1894 16.8696 29.7349 15.1313 29.9027C13.393 30.0704 11.639 29.8564 9.99199 29.2757V43.9635H15.987V33.9718H19.9837V43.9635H25.9788Z" fill="#DFC290" fill-opacity="0.5"/>
</svg>
