<svg width="46" height="46" viewBox="0 0 46 46" fill="none" xmlns="http://www.w3.org/2000/svg">
<rect width="45.9185" height="45.9185" transform="matrix(-1 0 0 1 45.9185 0)" fill="#022009"/>
<path d="M24.8723 34.4388C28.6032 34.4388 31.7677 33.1397 34.3659 30.5415C36.9642 27.9433 38.2639 24.7781 38.2652 21.0459V9.56629C38.2652 8.51399 37.8902 7.61348 37.1402 6.86475C36.3902 6.11602 35.4897 5.74102 34.4386 5.73975H10.5228C8.67326 5.73975 7.09481 6.39345 5.78741 7.70085C4.48001 9.00825 3.82631 10.5867 3.82631 12.4362C3.82631 14.2857 4.48001 15.8641 5.78741 17.1715C7.09481 18.4789 8.67326 19.1326 10.5228 19.1326H11.4794V21.0459C11.4794 24.7768 12.7785 27.942 15.3767 30.5415C17.9749 33.141 21.1401 34.4401 24.8723 34.4388ZM34.4386 15.3061H15.3059V9.56629H34.4386V15.3061ZM11.4794 15.3061H10.5228C9.72556 15.3061 9.04762 15.0274 8.48895 14.47C7.93027 13.9126 7.65157 13.2347 7.65285 12.4362C7.65412 11.6377 7.93282 10.9604 8.48895 10.4043C9.04507 9.84818 9.72301 9.56884 10.5228 9.56629H11.4794V15.3061ZM38.2652 40.1786V36.3521H7.65285V40.1786H38.2652Z" fill="#A8DF90" fill-opacity="0.5"/>
</svg>
