<svg width="46" height="46" viewBox="0 0 46 46" fill="none" xmlns="http://www.w3.org/2000/svg">
<rect width="45.9185" height="45.9185" fill="#022009"/>
<path d="M22.9592 36.3523C23.4278 36.3523 23.8801 36.5244 24.2303 36.8358C24.5805 37.1472 24.8043 37.5763 24.8591 38.0417L24.8725 38.2655V40.1788C24.8719 40.6665 24.6852 41.1355 24.3504 41.4901C24.0157 41.8447 23.5581 42.0581 23.0713 42.0867C22.5845 42.1152 22.1052 41.9569 21.7312 41.6439C21.3572 41.3309 21.1169 40.8869 21.0593 40.4027L21.0459 40.1788V38.2655C21.0459 37.7581 21.2475 37.2715 21.6063 36.9126C21.9651 36.5538 22.4518 36.3523 22.9592 36.3523ZM35.0377 32.3535L35.2175 32.5123L36.5568 33.8516C36.9 34.1959 37.0992 34.6579 37.114 35.1438C37.1289 35.6297 36.9582 36.103 36.6367 36.4676C36.3152 36.8322 35.867 37.0608 35.3831 37.1069C34.8992 37.153 34.4159 37.0131 34.0313 36.7158L33.8515 36.557L32.5122 35.2177C32.182 34.8881 31.9836 34.4492 31.9544 33.9836C31.9251 33.518 32.067 33.0578 32.3533 32.6895C32.6396 32.3211 33.0506 32.0701 33.509 31.9836C33.9674 31.897 34.4417 31.981 34.8425 32.2196L35.0377 32.3535ZM13.4062 32.5123C13.7357 32.8418 13.9336 33.2801 13.9628 33.7451C13.992 34.2101 13.8506 34.6697 13.565 35.0378L13.4062 35.2177L12.067 36.557C11.7226 36.9001 11.2606 37.0993 10.7748 37.1142C10.2889 37.129 9.81558 36.9584 9.45098 36.6369C9.08637 36.3154 8.85781 35.8672 8.81171 35.3832C8.76562 34.8993 8.90544 34.416 9.20278 34.0315L9.36159 33.8516L10.7009 32.5123C11.0597 32.1536 11.5462 31.9522 12.0536 31.9522C12.5609 31.9522 13.0475 32.1536 13.4062 32.5123ZM7.65304 21.0461C8.14069 21.0466 8.60973 21.2334 8.96433 21.5681C9.31893 21.9029 9.53232 22.3604 9.56089 22.8472C9.58947 23.3341 9.43109 23.8134 9.11809 24.1874C8.8051 24.5613 8.36113 24.8017 7.87689 24.8592L7.65304 24.8726H5.73976C5.25211 24.8721 4.78307 24.6854 4.42847 24.3506C4.07387 24.0158 3.86048 23.5583 3.8319 23.0715C3.80333 22.5847 3.96171 22.1053 4.27471 21.7314C4.5877 21.3574 5.03167 21.1171 5.51591 21.0595L5.73976 21.0461H7.65304ZM40.1786 21.0461C40.6663 21.0466 41.1353 21.2334 41.4899 21.5681C41.8445 21.9029 42.0579 22.3604 42.0865 22.8472C42.1151 23.3341 41.9567 23.8134 41.6437 24.1874C41.3307 24.5613 40.8867 24.8017 40.4025 24.8592L40.1786 24.8726H38.2654C37.7777 24.8721 37.3087 24.6854 36.9541 24.3506C36.5995 24.0158 36.3861 23.5583 36.3575 23.0715C36.3289 22.5847 36.4873 22.1053 36.8003 21.7314C37.1133 21.3574 37.5573 21.1171 38.0415 21.0595L38.2654 21.0461H40.1786ZM11.8871 9.20295L12.067 9.36175L13.4062 10.701C13.7494 11.0454 13.9486 11.5074 13.9634 11.9932C13.9783 12.4791 13.8076 12.9524 13.4861 13.317C13.1646 13.6816 12.7164 13.9102 12.2325 13.9563C11.7486 14.0024 11.2653 13.8626 10.8807 13.5652L10.7009 13.4064L9.36159 12.0671C9.03267 11.7374 8.83531 11.2991 8.80648 10.8343C8.77766 10.3695 8.91935 9.91009 9.20501 9.54228C9.49066 9.17447 9.90066 8.92348 10.3581 8.83635C10.8156 8.74923 11.2892 8.83195 11.69 9.06902L11.8871 9.20295ZM36.5568 9.36175C36.8862 9.69121 37.0841 10.1295 37.1134 10.5945C37.1426 11.0595 37.0012 11.5191 36.7156 11.8873L36.5568 12.0671L35.2175 13.4064C34.8732 13.7495 34.4112 13.9488 33.9253 13.9636C33.4395 13.9784 32.9662 13.8078 32.6016 13.4863C32.2369 13.1648 32.0084 12.7166 31.9623 12.2327C31.9162 11.7488 32.056 11.2654 32.3534 10.8809L32.5122 10.701L33.8515 9.36175C34.2102 9.00307 34.6968 8.80157 35.2041 8.80157C35.7115 8.80157 36.198 9.00307 36.5568 9.36175ZM22.9592 3.82666C23.4278 3.82672 23.8801 3.99877 24.2303 4.31017C24.5805 4.62158 24.8043 5.05067 24.8591 5.51608L24.8725 5.73993V7.6532C24.8719 8.14086 24.6852 8.6099 24.3504 8.9645C24.0157 9.3191 23.5581 9.53248 23.0713 9.56106C22.5845 9.58964 22.1052 9.43125 21.7312 9.11826C21.3572 8.80527 21.1169 8.3613 21.0593 7.87706L21.0459 7.6532V5.73993C21.0459 5.2325 21.2475 4.74585 21.6063 4.38704C21.9651 4.02824 22.4518 3.82666 22.9592 3.82666ZM22.9592 13.393C24.8336 13.3929 26.6667 13.9434 28.2309 14.9762C29.7951 16.009 31.0214 17.4786 31.7575 19.2024C32.4936 20.9262 32.7071 22.8282 32.3715 24.6723C32.0359 26.5164 31.1659 28.2213 29.8696 29.5752C28.5733 30.9291 26.9079 31.8723 25.0801 32.2878C23.2524 32.7032 21.3428 32.5726 19.5887 31.9121C17.8345 31.2516 16.313 30.0903 15.2132 28.5725C14.1134 27.0546 13.4838 25.2472 13.4024 23.3745L13.3928 22.9594L13.4024 22.5442C13.5094 20.0813 14.563 17.7548 16.3435 16.0499C18.1241 14.3449 20.494 13.3932 22.9592 13.393Z" fill="#A8DF90" fill-opacity="0.5"/>
</svg>
