<svg width="47" height="47" viewBox="0 0 47 47" fill="none" xmlns="http://www.w3.org/2000/svg">
<rect width="46.0934" height="46.0934" fill="#022009"/>
<path d="M4.60936 12.6757C5.80491 12.6757 6.78439 13.5832 6.89963 14.7427L6.92123 15.218C7.04367 16.3776 8.02315 17.2851 9.2187 17.2851H22.1177L32.2654 21.6351V39.1794C32.2654 40.4542 31.2355 41.4841 29.9607 41.4841H27.6561C26.3813 41.4841 25.3514 40.4542 25.3514 39.1794V29.7231C23.6229 30.6089 21.6639 31.1131 19.5897 31.1131C17.5155 31.1131 15.5566 30.6089 13.828 29.7231V39.1794C13.828 40.4542 12.7981 41.4841 11.5234 41.4841H9.2187C7.94393 41.4841 6.91403 40.4542 6.91403 39.1794V21.4911C4.22765 20.5404 2.30469 17.9909 2.30469 14.9804C2.30469 13.7056 3.33459 12.6757 4.60936 12.6757ZM27.9298 2.30469C28.4843 2.30469 29.0029 2.56396 29.3414 3.01049L30.5369 4.60936H34.2892C35.2039 4.60936 36.0825 4.97667 36.7307 5.62485L38.0271 6.91403H42.0603C43.0182 6.91403 43.7888 7.68465 43.7888 8.64253V10.371C43.7888 13.5544 41.2104 16.1327 38.0271 16.1327H33.4178L32.9136 18.1493L23.9326 14.3034L26.2085 3.70189C26.3813 2.88806 27.0943 2.30469 27.9298 2.30469ZM34.5701 7.77828C33.7779 7.77828 33.1297 8.42647 33.1297 9.2187C33.1297 10.0109 33.7779 10.6591 34.5701 10.6591C35.3623 10.6591 36.0105 10.0109 36.0105 9.2187C36.0105 8.42647 35.3623 7.77828 34.5701 7.77828Z" fill="#DF9090" fill-opacity="0.5"/>
</svg>
