<svg width="47" height="47" viewBox="0 0 47 47" fill="none" xmlns="http://www.w3.org/2000/svg">
<path d="M34.57 10.0832V13.4307L40.8675 15.9457C41.0524 16.0198 41.2199 16.1315 41.3595 16.2737C41.499 16.4159 41.6076 16.5855 41.6782 16.7717C41.7489 16.958 41.7802 17.1569 41.77 17.3559C41.7599 17.5549 41.7086 17.7496 41.6194 17.9277L40.179 20.8085C40.0378 21.0912 39.8077 21.3196 39.524 21.4586C39.2403 21.5976 38.9188 21.6394 38.6089 21.5777L32.6801 20.3908C31.4817 23.0815 30.2487 26.671 30.2487 28.8086C30.2487 31.1306 29.8886 33.3229 29.8886 34.9304C29.8886 35.737 29.9837 36.3708 30.1479 36.7828C30.2052 36.9652 30.3013 37.133 30.4296 37.2747C30.5579 37.4164 30.7154 37.5287 30.8911 37.6038C32.248 38.2837 31.7669 40.3291 30.2487 40.332H27.3679C26.9859 40.332 26.6195 40.1802 26.3493 39.9101C26.0792 39.64 25.9275 39.2736 25.9275 38.8916V30.0704C22.2342 30.0042 18.9472 29.84 15.4153 28.7424C14.2572 28.3794 13.7213 28.4831 13.4016 28.6271C13.0847 28.7741 12.8196 29.0737 12.5085 29.6124C12.1945 30.1511 11.9035 30.8713 11.3879 31.6059C11.1315 31.966 10.4948 32.0697 10.0339 32.3578C9.95608 34.1699 9.72273 35.7198 9.72273 36.3708C9.72273 36.7511 9.76306 36.849 9.84085 36.9672C9.91863 37.0853 10.1318 37.3071 10.7253 37.6009C12.0821 38.2837 11.601 40.3291 10.0828 40.332H7.202C6.81997 40.332 6.4536 40.1802 6.18347 39.9101C5.91333 39.64 5.76158 39.2736 5.76158 38.8916V27.3682C5.76158 25.7002 6.15625 24.0236 7.0666 22.6436C5.33521 22.2403 4.99239 21.4337 3.30134 19.7455C1.90989 18.38 4.03595 16.3749 5.34097 17.7059C7.88187 20.2525 8.64242 20.1661 11.5233 20.1661C19.846 20.1661 26.6189 17.2507 29.0503 13.6064L31.9311 9.28518C32.709 8.11556 34.57 8.66004 34.57 10.0832Z" fill="#DF9090" fill-opacity="0.5"/>
</svg>
