<svg width="47" height="47" viewBox="0 0 47 47" fill="none" xmlns="http://www.w3.org/2000/svg">
<path fill-rule="evenodd" clip-rule="evenodd" d="M36.1192 18.6564C37.3605 18.1132 38.3021 17.193 39.1853 16.2695C40.1919 15.2167 40.2051 13.8973 40.2051 13.2067C40.2051 12.1087 39.1737 11.2428 37.4971 11.2025C36.609 11.1811 36.0665 11.4025 35.3266 11.9416C34.7965 12.3268 33.5545 13.5878 34.1084 14.6191C34.1369 14.6729 34.1844 14.7379 34.2508 14.8142C34.3163 14.8905 34.3529 14.9874 34.3541 15.0879C34.3553 15.1885 34.321 15.2862 34.2574 15.3641C34.1934 15.4418 34.1017 15.4916 34.0017 15.5028C33.9016 15.514 33.8011 15.4858 33.7215 15.4241L33.6343 15.3566C32.5396 14.5204 31.9437 14.2092 31.9437 12.9705C31.9437 10.6395 35.0196 8.39982 37.9901 8.47143C40.9574 8.54304 43.2678 10.6856 43.2678 13.1837C43.2678 14.55 42.397 16.4884 40.973 17.9782C40.0628 18.9312 38.9635 19.6837 37.7457 20.1874C37.823 20.3147 37.9026 20.4527 37.9844 20.6014C38.791 22.0715 38.6856 22.2501 38.7885 24.0864C38.8906 25.9236 38.3473 29.2077 38.5556 30.8259C38.7647 32.4433 39.8092 32.6236 40.0388 33.7891C40.1842 34.5277 40.5456 37.7323 41.1228 43.4029C41.1348 43.5176 41.1226 43.6337 41.0868 43.7434C41.0511 43.8531 40.9926 43.9541 40.9153 44.0398C40.838 44.1255 40.7436 44.194 40.6381 44.2408C40.5326 44.2876 40.4184 44.3117 40.303 44.3116H38.6099C38.3922 44.3111 38.1835 44.2244 38.0295 44.0705C37.8756 43.9165 37.7889 43.7078 37.7885 43.4901V43.081C37.7885 42.8217 37.9103 42.5773 38.1177 42.4226L38.3794 42.2258C38.5026 42.1335 38.5974 42.0086 38.6532 41.8651C38.7089 41.7217 38.7233 41.5655 38.6947 41.4143C38.2447 39.0174 37.8491 37.5745 37.5078 37.0856C37.2559 36.7234 36.1184 36.1333 34.6516 34.9892C34.3888 34.7839 33.9169 34.3471 33.2359 33.6788C33.1811 33.6246 33.1123 33.5869 33.0371 33.57C32.962 33.553 32.8836 33.5575 32.8109 33.5829C32.7382 33.6083 32.6741 33.6535 32.6258 33.7136C32.5775 33.7736 32.5471 33.846 32.5379 33.9224C32.4139 34.9129 32.26 35.7475 32.0762 36.4263C31.8539 37.245 31.171 39.3787 30.0275 42.8275C29.9731 42.9919 29.8683 43.135 29.7279 43.2364C29.5875 43.3377 29.4187 43.3923 29.2455 43.3922H27.0907C26.8956 43.3919 26.7085 43.3143 26.5706 43.1764C26.4326 43.0384 26.355 42.8514 26.3548 42.6563V42.6069C26.3546 42.414 26.4221 42.2272 26.5457 42.079C26.6692 41.9308 26.8408 41.8307 27.0306 41.7962L27.9549 41.6266C28.6183 39.2034 28.9078 37.4285 28.8233 36.302C28.764 35.5052 28.2257 34.5784 27.6833 32.9652C27.5703 32.6299 27.4117 31.944 27.2076 30.9074C27.1967 30.8523 27.1747 30.8 27.1428 30.7538C27.111 30.7075 27.07 30.6682 27.0225 30.6384C26.9749 30.6086 26.9217 30.5888 26.8662 30.5803C26.8107 30.5717 26.754 30.5747 26.6997 30.5889L21.2154 32.0095C21.1551 32.0251 21.099 32.0542 21.0516 32.0946C21.0041 32.1349 20.9664 32.1856 20.9413 32.2427C20.9163 32.2997 20.9045 32.3617 20.907 32.424C20.9094 32.4863 20.9259 32.5472 20.9553 32.6022L21.0845 32.8458C21.3315 33.3084 21.4599 33.8253 21.4599 34.3496V42.0538C21.4599 42.3098 21.3405 42.5518 21.1372 42.7082L19.9873 43.5889C19.8434 43.6995 19.6668 43.7594 19.4853 43.7593H18.6597C18.5515 43.7593 18.4444 43.7379 18.3445 43.6965C18.2446 43.6551 18.1538 43.5944 18.0774 43.5179C18.0009 43.4414 17.9403 43.3505 17.899 43.2506C17.8577 43.1506 17.8365 43.0435 17.8366 42.9353V42.5156C17.8366 42.2168 17.9971 41.941 18.258 41.7953L18.8506 41.4645C18.9891 41.3874 19.1024 41.272 19.1768 41.1321C19.2513 40.9922 19.2838 40.8338 19.2704 40.6759C19.1771 39.5637 19.0614 38.7178 18.9231 38.1383C18.7815 37.5402 18.4377 36.474 17.8917 34.9398C17.8693 34.8766 17.8318 34.8199 17.7824 34.7746C17.7331 34.7292 17.6734 34.6966 17.6086 34.6796C17.5438 34.6626 17.4758 34.6616 17.4105 34.6768C17.3452 34.692 17.2847 34.723 17.2341 34.7669L17.0736 34.9052C16.6711 35.2534 16.1797 35.4814 15.6546 35.5661L10.5086 36.3892C10.4353 36.401 10.3666 36.4323 10.3097 36.4798C10.2528 36.5274 10.2098 36.5895 10.1852 36.6595C10.1607 36.7295 10.1555 36.8048 10.1703 36.8775C10.185 36.9502 10.2191 37.0175 10.269 37.0724L10.8164 37.6749C10.9547 37.8264 11.0304 38.0239 11.0304 38.2289V38.7672C11.0305 38.8774 11.0084 38.9865 10.9655 39.088C10.9226 39.1895 10.8597 39.2813 10.7807 39.3581C10.7016 39.4349 10.6079 39.495 10.5052 39.5348C10.4025 39.5747 10.2928 39.5936 10.1826 39.5903L9.50767 39.5705C9.38491 39.567 9.2645 39.536 9.15526 39.4799C9.04603 39.4238 8.95073 39.3439 8.87636 39.2462L8.02527 38.1317C7.91576 37.9882 7.85647 37.8127 7.85654 37.6321V35.9958C7.85654 35.7102 8.0047 35.4443 8.24751 35.2945C11.7632 33.1216 13.6695 31.9198 13.9664 31.6894C14.2742 31.4507 14.4026 31.0517 14.3516 30.4926C13.7787 28.7912 12.861 28.1887 12.4486 27.1813C12.0362 26.1738 11.2716 23.0411 10.8929 21.8377C10.1316 19.4178 9.46322 18.1379 9.28297 17.7551C8.878 16.8958 8.16355 16.774 7.40877 16.4777C6.65399 16.1814 5.21934 16.2258 4.28594 15.4069C3.35337 14.587 3.43898 13.731 3.22168 12.7993V11.6593C3.22168 11.2041 3.59125 10.8354 4.04642 10.8354H6.28195C6.58403 10.8354 6.86142 10.6707 7.00628 10.4049C7.26144 9.93627 7.66915 9.48878 8.2294 9.06242C8.97514 8.4981 9.82531 8.08714 10.7308 7.85329C10.525 5.29016 10.525 3.84233 10.7308 3.5098C10.9366 3.17727 11.5092 3.69747 12.4486 5.0704C12.5825 3.45383 12.8445 2.8612 13.2347 3.29251C13.5985 3.69582 14.2262 5.16094 15.1179 7.68785C15.2348 8.01708 15.4035 8.32821 15.6175 8.6056C15.9918 9.08958 16.3298 9.66849 16.6316 10.3423C17.2053 11.6231 17.8753 14.9681 19.0614 16.6135C20.2466 18.2589 20.9388 18.3939 22.6509 18.6984C23.7884 18.9009 27.7105 18.2539 30.923 18.1288C33.3972 18.0317 35.3875 18.4482 35.7464 18.5404C35.8753 18.5733 35.9996 18.6125 36.1192 18.6564Z" fill="#DF9090" fill-opacity="0.5"/>
</svg>
