<svg width="48" height="48" viewBox="0 0 48 48" fill="none" xmlns="http://www.w3.org/2000/svg">
<rect width="47.9603" height="47.9603" fill="#022009"/>
<path d="M32.579 4.74189L32.7848 4.9697C33.2537 5.5451 33.4924 6.27397 33.4547 7.01524C33.4171 7.75651 33.1058 8.45745 32.581 8.98238L22.3455 19.2179C22.1635 19.4063 22.0628 19.6587 22.0651 19.9207C22.0673 20.1827 22.1724 20.4333 22.3577 20.6186C22.5429 20.8038 22.7935 20.9089 23.0555 20.9112C23.3175 20.9134 23.5699 20.8127 23.7583 20.6307L28.3425 16.0485C28.9046 15.4866 29.6669 15.1709 30.4618 15.1709C31.2566 15.1709 32.0189 15.4866 32.581 16.0485L32.7868 16.2763C33.2549 16.8518 33.4929 17.5804 33.4549 18.3212C33.4169 19.062 33.1055 19.7624 32.581 20.287L29.4116 23.4564C29.2296 23.6448 29.1289 23.8972 29.1312 24.1592C29.1335 24.4212 29.2386 24.6718 29.4238 24.857C29.6091 25.0423 29.8597 25.1474 30.1217 25.1497C30.3836 25.1519 30.636 25.0512 30.8245 24.8692L32.9347 22.761C33.1667 22.5289 33.4421 22.3449 33.7452 22.2193C34.0483 22.0937 34.3732 22.0291 34.7013 22.0291C35.0293 22.0291 35.3542 22.0937 35.6573 22.2193C35.9604 22.3449 36.2358 22.5289 36.4678 22.761L36.6377 22.9508C37.437 23.93 37.381 25.3788 36.4678 26.292L34.3575 28.4023C34.1702 28.5897 34.065 28.8438 34.065 29.1087C34.065 29.3736 34.1702 29.6277 34.3575 29.8151L34.5134 29.943C34.7056 30.0698 34.9356 30.1263 35.1647 30.103C35.3937 30.0796 35.6077 29.978 35.7704 29.8151L36.4678 29.1197C36.9359 28.6514 37.5708 28.3882 38.2329 28.3878C38.895 28.3875 39.5302 28.65 39.9989 29.1177L40.1687 29.3075C40.9681 30.2887 40.9121 31.7355 39.9989 32.6508L33.2844 39.3612C30.6536 41.9178 27.1238 43.3386 23.4554 43.3175C19.7871 43.2964 16.2738 41.8351 13.6725 39.2485C11.0712 36.6619 9.5901 33.157 9.54827 29.4888C9.50645 25.8206 10.9072 22.2828 13.4489 19.6375L28.3405 4.74189C28.9026 4.17994 29.6649 3.86426 30.4598 3.86426C31.2546 3.86426 32.0169 4.17994 32.579 4.74189ZM15.1255 6.36255C16.3065 6.61034 17.3037 7.27579 18.125 8.09711C18.7545 8.72859 19.332 9.50594 19.8636 10.3972L12.8913 17.3654L10.3514 10.4851C9.92779 9.34008 10.2036 7.7414 11.6024 6.95606L12.0181 6.74423C12.9846 6.28175 14.0758 6.14773 15.1255 6.36255Z" fill="#FD730A" fill-opacity="0.5"/>
</svg>
