<svg width="48" height="48" viewBox="0 0 48 48" fill="none" xmlns="http://www.w3.org/2000/svg">
<rect width="47.9603" height="47.9603" fill="#022009"/>
<path d="M23.9803 45.9621C11.8404 45.9621 1.99854 36.1203 1.99854 23.9803C1.99854 11.8404 11.8404 1.99854 23.9803 1.99854C36.1203 1.99854 45.9621 11.8404 45.9621 23.9803C45.9621 36.1203 36.1203 45.9621 23.9803 45.9621ZM17.9853 23.9803V15.9869H13.9886V23.9803H17.9853ZM33.972 23.9803V15.9869H29.9754V23.9803H33.972ZM23.9803 37.9687C26.6303 37.9687 29.1717 36.916 31.0455 35.0422C32.9193 33.1684 33.972 30.627 33.972 27.977H13.9886C13.9886 30.627 15.0413 33.1684 16.9151 35.0422C18.7889 36.916 21.3304 37.9687 23.9803 37.9687Z" fill="#FD730A" fill-opacity="0.5"/>
</svg>
