<svg width="48" height="48" viewBox="0 0 48 48" fill="none" xmlns="http://www.w3.org/2000/svg">
<rect width="47.7503" height="47.7503" fill="#022009"/>
<path d="M35.9124 41.7815L30.4808 32.3508C30.4808 28.9088 28.3519 26.7003 25.7654 26.7003C23.9748 26.7003 22.4229 27.6951 21.6271 29.1674C22.2836 28.7894 23.0596 28.5905 23.8753 28.5905C26.4618 28.5905 28.5707 30.6994 28.5707 33.2859C28.5707 35.8923 26.4817 38.0211 23.8753 38.0211H30.441V41.7815H13.5095C13.032 41.7815 12.5346 41.6024 12.1765 41.2244C11.8241 40.8702 11.6263 40.3909 11.6263 39.8914C11.6263 39.3918 11.8241 38.9125 12.1765 38.5583L13.1713 37.5635C12.4948 37.2651 11.9377 36.8075 11.3806 36.33C10.9429 37.3248 9.94813 38.0211 8.79416 38.0211C8.04222 38.0211 7.32109 37.7224 6.78939 37.1907C6.25769 36.659 5.95898 35.9379 5.95898 35.186C5.95898 34.434 6.25769 33.7129 6.78939 33.1812C7.32109 32.6495 8.04222 32.3508 8.79416 32.3508L9.72927 32.51V28.5905C9.72665 27.3513 9.96879 26.1238 10.4418 24.9784C10.9148 23.833 11.6094 22.7924 12.4856 21.9161C13.3618 21.0399 14.4025 20.3453 15.5479 19.8723C16.6933 19.3993 17.9208 19.1572 19.16 19.1598H19.1997C23.4177 19.1797 26.7005 20.831 26.7005 18.2247C26.7005 16.3743 27.0984 15.6382 27.7749 14.6036C26.3225 13.9271 24.6711 13.5093 22.9402 13.5093C21.8857 13.5093 21.0501 12.6737 21.0501 11.6192C21.0501 10.7637 21.6072 10.0474 22.3831 9.80867L21.0501 9.72909C20.0155 9.72909 19.16 8.89346 19.16 7.85887C19.16 6.80438 20.0155 5.96875 21.0501 5.96875H22.9402C27.1183 5.96875 30.7792 8.25679 32.7489 11.6391L33.306 11.6192C34.7186 11.6192 36.0317 12.0768 37.1061 12.8329L38.0014 13.5889C42.3189 17.4686 41.7817 20.0949 41.7817 20.1148C41.7817 22.6615 39.6727 24.7505 37.1061 24.7505L36.1312 24.6511V24.8102C36.1312 27.0187 35.1762 28.9884 33.684 30.3811L40.2696 41.7815H35.9124ZM36.1312 15.3994C35.0767 15.3994 34.2411 16.2351 34.2411 17.2697C34.2411 18.3241 35.0767 19.1598 36.1312 19.1598C37.1658 19.1598 38.0213 18.3241 38.0213 17.2697C38.0213 16.2351 37.1658 15.3994 36.1312 15.3994Z" fill="#F14B4E" fill-opacity="0.5"/>
</svg>
