<svg width="48" height="48" viewBox="0 0 48 48" fill="none" xmlns="http://www.w3.org/2000/svg">
<rect width="47.7503" height="47.7503" fill="#022009"/>
<path d="M22.5962 2.54502C22.2078 2.54502 22.1495 2.60983 22.0746 2.83021C21.9997 3.05059 22.008 3.61063 22.4537 4.42472C23.2705 5.91691 25.4713 8.12966 29.7912 10.4478C30.458 9.75018 31.2464 9.24284 32.0826 8.88909C29.7063 7.57633 27.9744 6.13039 26.5902 4.95734C24.8247 3.46141 23.6687 2.54492 22.5961 2.54492L22.5962 2.54502ZM16.4154 7.64273C16.0596 7.64339 15.9789 7.72331 15.9425 7.7691C15.9062 7.8148 15.8493 7.94462 15.8973 8.24707C15.9934 8.85179 16.5651 9.92719 17.576 10.9464C19.5982 12.9846 23.2457 14.8901 27.7922 14.1844C27.9908 14.1537 28.2328 14.127 28.5239 14.2958C28.8149 14.4646 28.965 14.8516 28.9688 15.0755C28.9759 15.5238 28.8293 15.7165 28.7149 15.9657C28.4862 16.4642 28.3092 17.0529 28.3069 17.0355V17.0357C28.4915 18.4347 29.6474 19.4867 31.3282 20.2654C33.0091 21.0444 35.1286 21.4782 36.819 21.6398C37.9897 21.7517 39.3586 21.7326 40.6335 21.5104C40.4884 21.2572 40.3839 20.9903 40.3248 20.7162C40.1603 19.9555 40.3346 19.1876 40.7065 18.5406C41.3026 17.5035 42.3956 16.7048 43.7244 16.4114C43.2917 15.6805 42.7514 14.8891 42.1368 14.1179C40.279 11.7871 37.713 9.7388 35.797 9.69879C33.8884 9.65897 31.6834 10.2635 30.4468 11.9597C30.2379 12.246 29.9282 12.3461 29.699 12.3756C29.4699 12.4053 29.2679 12.3849 29.0536 12.3491C28.6254 12.2777 28.149 12.1278 27.5975 11.9269C26.4947 11.5252 25.1144 10.9113 23.6687 10.2693C22.2229 9.62736 20.7152 8.95801 19.4025 8.45626C18.0897 7.95451 16.9267 7.64161 16.4156 7.64264L16.4154 7.64273ZM37.3455 13.4171C37.7336 13.4284 38.1019 13.5905 38.3724 13.869C38.6429 14.1475 38.7942 14.5205 38.7941 14.9087C38.7941 15.3045 38.6369 15.684 38.3571 15.9639C38.0772 16.2437 37.6977 16.4009 37.3019 16.4009C36.9062 16.4009 36.5266 16.2437 36.2468 15.9639C35.967 15.684 35.8097 15.3045 35.8097 14.9087C35.8097 14.7091 35.8498 14.5115 35.9275 14.3276C36.0052 14.1437 36.119 13.9773 36.2622 13.8382C36.4055 13.6991 36.5751 13.5901 36.7612 13.5178C36.9472 13.4454 37.1459 13.4111 37.3455 13.417V13.4171ZM3.71062 17.7922C3.63564 17.7928 3.52251 17.8155 3.33599 17.9078H3.3358C2.93925 18.104 2.64221 18.5805 2.50735 19.4303C2.3724 20.28 2.44244 21.414 2.68343 22.5574C2.92451 23.7011 3.33198 24.8594 3.8134 25.7875C4.09533 26.3309 4.40897 26.7731 4.70219 27.1056C5.16533 25.4924 6.00254 23.9502 7.28527 22.5879C6.9982 22.4032 6.73601 22.1823 6.50513 21.9308C5.84763 21.2111 5.42292 20.3572 5.04576 19.6107C4.66861 18.8642 4.31645 18.2254 4.05345 17.9688C3.92214 17.8405 3.84641 17.809 3.7746 17.7972C3.75355 17.7937 3.73224 17.792 3.7109 17.7921L3.71062 17.7922ZM44.525 17.9843C43.438 18.0897 42.5395 18.7202 42.1616 19.3773C41.958 19.7314 41.901 20.0644 41.9652 20.3617C42.0128 20.5818 42.1247 20.809 42.3763 21.0415C43.4818 20.6159 44.3495 19.9765 44.8147 19.0888C44.788 19.128 44.8317 18.9657 44.7677 18.6986C44.7216 18.5056 44.6374 18.2593 44.5252 17.9842L44.525 17.9843ZM26.0128 18.7047C25.7859 18.7043 25.5589 18.7053 25.332 18.7078C18.6603 18.783 14.0857 19.9641 11.0979 21.7097C7.68332 23.7048 6.27478 26.3814 5.98305 29.305C5.69133 32.2284 6.59858 35.4149 8.03482 38.1238C9.41884 40.7341 11.3078 42.8827 12.8817 43.9266H29.1153C29.1028 43.7485 29.0528 43.5951 28.9752 43.4428C28.8225 43.1434 28.5165 42.831 28.0396 42.5394C27.0857 41.9559 25.5103 41.5093 23.8603 41.1928C22.2102 40.8765 20.4866 40.6709 19.1389 40.4467C18.4649 40.3348 17.8899 40.225 17.4106 40.062C17.1709 39.9806 16.9517 39.8929 16.7285 39.7269C16.5055 39.5607 16.233 39.2247 16.233 38.7971C16.233 38.5537 16.3515 38.3325 16.4545 38.217C16.5578 38.1017 16.6439 38.0547 16.711 38.0189C16.8455 37.9476 16.9239 37.9301 17.0025 37.9111C17.1597 37.8731 17.3044 37.8547 17.4804 37.8353C17.8326 37.7967 18.2931 37.7653 18.8533 37.7246C19.9733 37.643 21.4746 37.5282 23.0471 37.2874C26.1921 36.806 29.5178 35.7226 30.6159 33.8892C31.213 32.8922 31.1465 31.9614 30.5636 30.9835C29.9805 30.0055 28.8086 29.0504 27.2323 28.4303C24.0798 27.1902 19.3917 27.2679 14.8545 30.5259L13.8753 29.1618C16.9834 26.93 20.2162 26.0226 23.1083 26.0114C24.8437 26.0047 26.4556 26.322 27.8443 26.8682C29.6959 27.5966 31.1706 28.7269 32.0032 30.1236C32.8361 31.5203 32.9541 33.2514 32.0557 34.7518C30.4106 37.4983 26.6021 38.4403 23.3007 38.9458C22.7507 39.0299 22.2454 39.0829 21.7297 39.1409C22.5153 39.2575 23.3449 39.3839 24.1751 39.5431C25.9045 39.8748 27.6158 40.3125 28.9167 41.1081C29.5672 41.506 30.1282 42.0086 30.4702 42.6791C30.6621 43.0558 30.769 43.4805 30.7845 43.9264H42.9701C43.1634 43.7623 43.2905 43.623 43.3286 43.5475C43.3788 43.4483 43.3715 43.4377 43.352 43.3552C43.3125 43.1901 43.01 42.7802 42.6264 42.3177C42.3907 42.0338 41.5989 41.5793 40.6065 41.3296C39.6142 41.08 38.4294 40.9892 37.4123 41.1226L37.1937 41.149L36.9868 41.0673C36.365 40.8141 35.8803 40.1671 35.8443 39.5459C35.8083 38.9247 36.0206 38.3939 36.2845 37.8236C36.8119 36.683 37.665 35.3647 38.3537 33.8395C39.0423 32.3144 39.5574 30.6201 39.4467 28.8179C39.3392 27.0711 38.657 25.1872 36.8503 23.1401C36.7923 23.1353 36.7339 23.1308 36.6768 23.1252H36.6766C34.8575 22.9514 32.6175 22.5078 30.7004 21.6194C29.2797 20.961 27.9897 20.0184 27.3042 18.7214C26.8666 18.712 26.4339 18.7053 26.0125 18.7046L26.0128 18.7047Z" fill="#F14B4E" fill-opacity="0.5"/>
</svg>
