<svg width="48" height="48" viewBox="0 0 48 48" fill="none" xmlns="http://www.w3.org/2000/svg">
<rect width="47.7503" height="47.7503" fill="#022009"/>
<path d="M33.5051 28.849C32.9878 28.5107 32.2715 27.6353 31.9333 27.2175C34.3009 23.875 37.8026 17.6475 37.8026 9.94779C37.8026 6.06808 36.3303 3.979 33.8234 3.979C30.7594 3.979 25.9446 8.07757 23.8754 15.8569C21.8062 8.07757 16.9914 3.979 13.9274 3.979C11.4205 3.979 9.94824 6.06808 9.94824 9.94779C9.94824 17.6475 13.4499 23.875 15.8176 27.2175C15.4793 27.6353 14.7631 28.5107 14.2458 28.849C13.251 29.7045 10.943 31.6145 10.943 34.8177C10.943 39.2148 14.5044 42.7761 18.9014 42.7761C21.9853 42.7761 23.8754 41.662 23.8754 41.662C23.8754 41.662 25.7655 42.7761 28.8494 42.7761C33.2464 42.7761 36.8078 39.2148 36.8078 34.8177C36.8078 31.6145 34.4999 29.7045 33.5051 28.849ZM18.603 24.2729C16.5935 21.2885 13.9274 16.1553 13.9274 9.94779C13.9274 8.95299 14.0468 8.35612 14.1662 8.01788C16.0364 8.63466 20.6125 13.4097 20.891 23.2184C19.9559 23.4572 19.2198 23.8153 18.603 24.2729ZM20.891 33.3255C20.3339 33.3255 19.8962 32.6491 19.8962 31.8334C19.8962 31.0176 20.3339 30.3412 20.891 30.3412C21.4481 30.3412 21.8858 31.0176 21.8858 31.8334C21.8858 32.6491 21.4481 33.3255 20.891 33.3255ZM23.8754 38.7969C22.7811 38.7969 21.8858 37.3644 21.8858 36.8073C21.8858 36.2503 22.7811 35.8125 23.8754 35.8125C24.9697 35.8125 25.865 36.2503 25.865 36.8073C25.865 37.3644 24.9697 38.7969 23.8754 38.7969ZM26.8598 33.3255C26.3027 33.3255 25.865 32.6491 25.865 31.8334C25.865 31.0176 26.3027 30.3412 26.8598 30.3412C27.4169 30.3412 27.8546 31.0176 27.8546 31.8334C27.8546 32.6491 27.4169 33.3255 26.8598 33.3255ZM26.8598 23.2184C27.1384 13.4097 31.7144 8.63466 33.5846 8.01788C33.704 8.35612 33.8234 8.95299 33.8234 9.94779C33.8234 16.1553 31.1573 21.2885 29.1478 24.2729C28.5311 23.8153 27.7949 23.4572 26.8598 23.2184Z" fill="#F14B4E" fill-opacity="0.5"/>
</svg>
